<svg xmlns="http://www.w3.org/2000/svg" viewBox="0 0 35 41" width="35" height="41">
<path d="M0 0 C3.22410993 2.40093293 4.69450034 3.94250118 5.8125 7.8125 C5.874375 8.534375 5.93625 9.25625 6 10 C7.98 10 9.96 10 12 10 C12.33865141 12.99948391 12.67105073 15.99944926 13 19 C13.09539063 19.83917969 13.19078125 20.67835937 13.2890625 21.54296875 C14.83125 35.753125 14.83125 35.753125 12 40 C6.85835643 41.71388119 1.44479988 41.22681292 -3.9375 41.25 C-5.13052734 41.270625 -6.32355469 41.29125 -7.55273438 41.3125 C-8.69935547 41.31765625 -9.84597656 41.3228125 -11.02734375 41.328125 C-12.60116821 41.34214355 -12.60116821 41.34214355 -14.20678711 41.35644531 C-17.39315956 40.94982843 -18.76440608 40.28544251 -21 38 C-21.33269213 35.36593293 -21.42498704 33.18149171 -21.3125 30.5625 C-21.29703125 29.85544922 -21.2815625 29.14839844 -21.265625 28.41992188 C-21.09905318 22.26231696 -20.64962877 16.12507126 -20 10 C-17.69 10 -15.38 10 -13 10 C-12.9175 8.906875 -12.835 7.81375 -12.75 6.6875 C-12 3 -12 3 -10.4375 1.0625 C-6.92903109 -0.4668326 -3.71140377 -0.78793691 0 0 Z M-7.8125 5.3125 C-9.2877467 7.06499542 -9.2877467 7.06499542 -9 10 C-5.7 10 -2.4 10 1 10 C0.62095792 6.70924004 0.62095792 6.70924004 -1 4 C-3.88725465 3.69607846 -5.42208484 3.58150971 -7.8125 5.3125 Z M-15 14 C-16.17469444 16.34938888 -16.20034889 17.95073205 -16.31640625 20.5703125 C-16.35451416 21.37742676 -16.39262207 22.18454102 -16.43188477 23.01611328 C-16.47498779 24.0420459 -16.51809082 25.06797852 -16.5625 26.125 C-16.706875 29.38375 -16.85125 32.6425 -17 36 C-8.42 36 0.16 36 9 36 C10.25205243 33.49589513 9.95815898 32.19935991 9.66015625 29.4296875 C9.56669922 28.53378906 9.47324219 27.63789063 9.37695312 26.71484375 C9.27318359 25.77769531 9.16941406 24.84054688 9.0625 23.875 C8.91264648 22.45767578 8.91264648 22.45767578 8.75976562 21.01171875 C8.51181085 18.67385945 8.25833685 16.3367311 8 14 C7.34 14 6.68 14 6 14 C6 15.65 6 17.3 6 19 C4.35 19 2.7 19 1 19 C1 17.35 1 15.7 1 14 C-2.3 14 -5.6 14 -9 14 C-9 15.65 -9 17.3 -9 19 C-10.32 19 -11.64 19 -13 19 C-13 17.35 -13 15.7 -13 14 C-13.66 14 -14.32 14 -15 14 Z " fill="#FFFFFF" transform="translate(21,0)"/>
</svg>
